<?xml version="1.0" encoding="utf-8"?>
<!-- Generator: Adobe Illustrator 23.0.2, SVG Export Plug-In . SVG Version: 6.00 Build 0)  -->
<svg version="1.1" id="Layer_1" xmlns="http://www.w3.org/2000/svg" xmlns:xlink="http://www.w3.org/1999/xlink" x="0px" y="0px"
	 viewBox="0 0 290 320" style="enable-background:new 0 0 290 320;" xml:space="preserve">
<style type="text/css">
	.st0{fill:none;stroke:#868E96;stroke-width:5;stroke-linejoin:round;}
</style>
<title>1_column</title>
<line class="st0" x1="58" y1="44.5" x2="232" y2="44.5"/>
<line class="st0" x1="58" y1="58.5" x2="232" y2="58.5"/>
<line class="st0" x1="58" y1="72.5" x2="232" y2="72.5"/>
<line class="st0" x1="58" y1="86.5" x2="232" y2="86.5"/>
<line class="st0" x1="58" y1="100.5" x2="232" y2="100.5"/>
<line class="st0" x1="58" y1="114.5" x2="232" y2="114.5"/>
<line class="st0" x1="58" y1="128.5" x2="232" y2="128.5"/>
<line class="st0" x1="58" y1="142.5" x2="232" y2="142.5"/>
<line class="st0" x1="58" y1="156.5" x2="232" y2="156.5"/>
<line class="st0" x1="58" y1="170.5" x2="232" y2="170.5"/>
<line class="st0" x1="58" y1="184.5" x2="232" y2="184.5"/>
<line class="st0" x1="58" y1="198.5" x2="232" y2="198.5"/>
<line class="st0" x1="58" y1="212.5" x2="232" y2="212.5"/>
<line class="st0" x1="58" y1="226.5" x2="232" y2="226.5"/>
<line class="st0" x1="58" y1="240.5" x2="232" y2="240.5"/>
<line class="st0" x1="58" y1="254.5" x2="232" y2="254.5"/>
<line class="st0" x1="58" y1="268.5" x2="192" y2="268.5"/>
</svg>
