<?xml version="1.0" encoding="utf-8"?>
<svg version="1.1" id="Layer_1" xmlns="http://www.w3.org/2000/svg" xmlns:xlink="http://www.w3.org/1999/xlink" x="0px" y="0px"
	 viewBox="0 0 147 214.24" style="enable-background:new 0 0 147 214.24;" xml:space="preserve">
<style type="text/css">
	.st0{fill:#146EFF;stroke:#FFFFFF;stroke-width:3;stroke-miterlimit:10;}
</style>
<polygon class="st0" points="110,39.62 110,84.62 74,120.62 74,75.62 "/>
<polygon class="st0" points="109.5,84.62 109.5,129.62 73.5,165.62 73.5,120.62 "/>
<polygon class="st0" points="37.5,129.62 37.5,174.62 1.5,210.62 1.5,165.62 "/>
<polygon class="st0" points="73.5,120.62 73.5,75.62 37.5,39.62 37.5,84.62 "/>
<polygon class="st0" points="73.5,165.62 73.5,120.62 37.5,84.62 37.5,129.62 "/>
<polygon class="st0" points="145.5,210.62 145.5,165.62 109.5,129.62 109.5,174.62 "/>
<polygon class="st0" points="110,39.62 74,75.62 74,3.62 "/>
<polygon class="st0" points="73.5,165.62 37.5,201.62 37.5,129.62 "/>
<polygon class="st0" points="38,39.62 74,3.62 74,75.62 "/>
<polygon class="st0" points="73.5,165.62 109.5,129.62 109.5,201.62 "/>
<polygon class="st0" points="73.5,165.12 109.5,201.12 37.5,201.12 "/>
</svg>
